<mxfile host="app.diagrams.net" agent="Mozilla/5.0 (Windows NT 10.0; Win64; x64) AppleWebKit/537.36 (KHTML, like Gecko) Chrome/109.0.0.0 Safari/537.36" version="26.1.2">
  <diagram name="第 1 页" id="31q3D3CnDwsnLM9kuQsy">
    <mxGraphModel dx="1793" dy="2044" grid="1" gridSize="10" guides="1" tooltips="1" connect="1" arrows="1" fold="1" page="1" pageScale="1" pageWidth="827" pageHeight="1169" math="0" shadow="0">
      <root>
        <mxCell id="0" />
        <mxCell id="1" parent="0" />
        <mxCell id="vy_A0kVUEXBCtg2rwdy0-69" value="" style="rounded=0;whiteSpace=wrap;html=1;fontFamily=Helvetica;fontSize=11;fontColor=default;labelBackgroundColor=default;fillColor=none;strokeColor=default;dashed=1;" vertex="1" parent="1">
          <mxGeometry x="640.5" y="448.5" width="170" height="230" as="geometry" />
        </mxCell>
        <mxCell id="vy_A0kVUEXBCtg2rwdy0-84" style="shape=connector;rounded=0;orthogonalLoop=1;jettySize=auto;html=1;exitX=0.5;exitY=0;exitDx=0;exitDy=0;entryX=0.5;entryY=1;entryDx=0;entryDy=0;strokeColor=default;align=center;verticalAlign=middle;fontFamily=Helvetica;fontSize=11;fontColor=default;labelBackgroundColor=default;endArrow=classic;" edge="1" parent="1" source="vy_A0kVUEXBCtg2rwdy0-51" target="vy_A0kVUEXBCtg2rwdy0-50">
          <mxGeometry relative="1" as="geometry" />
        </mxCell>
        <mxCell id="vy_A0kVUEXBCtg2rwdy0-51" value="" style="rounded=0;whiteSpace=wrap;html=1;fontFamily=Helvetica;fontSize=11;fontColor=default;labelBackgroundColor=default;fillColor=none;strokeColor=default;dashed=1;" vertex="1" parent="1">
          <mxGeometry x="40" y="455" width="170" height="230" as="geometry" />
        </mxCell>
        <mxCell id="vy_A0kVUEXBCtg2rwdy0-1" value="" style="image;aspect=fixed;perimeter=ellipsePerimeter;html=1;align=center;shadow=0;dashed=0;spacingTop=3;image=img/lib/active_directory/databases.svg;" vertex="1" parent="1">
          <mxGeometry x="129.99999999999997" y="591" width="50" height="49" as="geometry" />
        </mxCell>
        <mxCell id="vy_A0kVUEXBCtg2rwdy0-3" value="" style="sketch=0;outlineConnect=0;fontColor=#232F3E;gradientColor=none;fillColor=#232F3D;strokeColor=none;dashed=0;verticalLabelPosition=bottom;verticalAlign=top;align=center;html=1;fontSize=12;fontStyle=0;aspect=fixed;pointerEvents=1;shape=mxgraph.aws4.mobile_client;" vertex="1" parent="1">
          <mxGeometry x="60" y="529" width="58.35" height="111" as="geometry" />
        </mxCell>
        <mxCell id="vy_A0kVUEXBCtg2rwdy0-4" value="" style="image;aspect=fixed;perimeter=ellipsePerimeter;html=1;align=center;shadow=0;dashed=0;spacingTop=3;image=img/lib/active_directory/laptop_client.svg;" vertex="1" parent="1">
          <mxGeometry x="250" y="530" width="99" height="110" as="geometry" />
        </mxCell>
        <mxCell id="vy_A0kVUEXBCtg2rwdy0-5" value="" style="image;aspect=fixed;perimeter=ellipsePerimeter;html=1;align=center;shadow=0;dashed=0;spacingTop=3;image=img/lib/active_directory/workstation_client.svg;" vertex="1" parent="1">
          <mxGeometry x="660" y="498.5" width="110.5" height="130" as="geometry" />
        </mxCell>
        <mxCell id="vy_A0kVUEXBCtg2rwdy0-48" value="" style="image;aspect=fixed;perimeter=ellipsePerimeter;html=1;align=center;shadow=0;dashed=0;spacingTop=3;image=img/lib/active_directory/databases.svg;" vertex="1" parent="1">
          <mxGeometry x="360" y="600" width="50" height="49" as="geometry" />
        </mxCell>
        <mxCell id="vy_A0kVUEXBCtg2rwdy0-49" value="" style="image;aspect=fixed;perimeter=ellipsePerimeter;html=1;align=center;shadow=0;dashed=0;spacingTop=3;image=img/lib/active_directory/databases.svg;" vertex="1" parent="1">
          <mxGeometry x="750" y="600" width="50" height="49" as="geometry" />
        </mxCell>
        <mxCell id="vy_A0kVUEXBCtg2rwdy0-60" value="" style="group" vertex="1" connectable="0" parent="1">
          <mxGeometry x="89" y="-50" width="650" height="344.3" as="geometry" />
        </mxCell>
        <mxCell id="vy_A0kVUEXBCtg2rwdy0-50" value="" style="rounded=0;whiteSpace=wrap;html=1;fontFamily=Helvetica;fontSize=11;fontColor=default;labelBackgroundColor=default;fillColor=none;strokeColor=default;dashed=1;" vertex="1" parent="vy_A0kVUEXBCtg2rwdy0-60">
          <mxGeometry width="650" height="344.3" as="geometry" />
        </mxCell>
        <mxCell id="vy_A0kVUEXBCtg2rwdy0-59" value="" style="group" vertex="1" connectable="0" parent="vy_A0kVUEXBCtg2rwdy0-60">
          <mxGeometry x="44.599999999999994" y="24.3" width="575.4" height="282.85" as="geometry" />
        </mxCell>
        <mxCell id="vy_A0kVUEXBCtg2rwdy0-2" value="" style="image;aspect=fixed;perimeter=ellipsePerimeter;html=1;align=center;shadow=0;dashed=0;spacingTop=3;image=img/lib/active_directory/generic_server.svg;" vertex="1" parent="vy_A0kVUEXBCtg2rwdy0-59">
          <mxGeometry y="49.989999999999995" width="126.4" height="225.71" as="geometry" />
        </mxCell>
        <mxCell id="vy_A0kVUEXBCtg2rwdy0-47" value="" style="group" vertex="1" connectable="0" parent="vy_A0kVUEXBCtg2rwdy0-59">
          <mxGeometry x="365.4" y="42.85" width="210" height="240" as="geometry" />
        </mxCell>
        <mxCell id="vy_A0kVUEXBCtg2rwdy0-21" style="rounded=0;orthogonalLoop=1;jettySize=auto;html=1;exitX=1;exitY=0.5;exitDx=0;exitDy=0;" edge="1" parent="vy_A0kVUEXBCtg2rwdy0-47" source="vy_A0kVUEXBCtg2rwdy0-6" target="vy_A0kVUEXBCtg2rwdy0-9">
          <mxGeometry relative="1" as="geometry" />
        </mxCell>
        <mxCell id="vy_A0kVUEXBCtg2rwdy0-22" style="rounded=0;orthogonalLoop=1;jettySize=auto;html=1;exitX=1;exitY=0.5;exitDx=0;exitDy=0;entryX=0;entryY=0.5;entryDx=0;entryDy=0;" edge="1" parent="vy_A0kVUEXBCtg2rwdy0-47" source="vy_A0kVUEXBCtg2rwdy0-6" target="vy_A0kVUEXBCtg2rwdy0-10">
          <mxGeometry relative="1" as="geometry" />
        </mxCell>
        <mxCell id="vy_A0kVUEXBCtg2rwdy0-23" style="rounded=0;orthogonalLoop=1;jettySize=auto;html=1;exitX=1;exitY=0.5;exitDx=0;exitDy=0;entryX=0;entryY=0.5;entryDx=0;entryDy=0;" edge="1" parent="vy_A0kVUEXBCtg2rwdy0-47" source="vy_A0kVUEXBCtg2rwdy0-6" target="vy_A0kVUEXBCtg2rwdy0-11">
          <mxGeometry relative="1" as="geometry" />
        </mxCell>
        <mxCell id="vy_A0kVUEXBCtg2rwdy0-24" style="rounded=0;orthogonalLoop=1;jettySize=auto;html=1;exitX=1;exitY=0.5;exitDx=0;exitDy=0;entryX=0;entryY=0.5;entryDx=0;entryDy=0;" edge="1" parent="vy_A0kVUEXBCtg2rwdy0-47" source="vy_A0kVUEXBCtg2rwdy0-6" target="vy_A0kVUEXBCtg2rwdy0-12">
          <mxGeometry relative="1" as="geometry" />
        </mxCell>
        <mxCell id="vy_A0kVUEXBCtg2rwdy0-6" value="" style="ellipse;whiteSpace=wrap;html=1;fillColor=#ffe6cc;strokeColor=#d79b00;" vertex="1" parent="vy_A0kVUEXBCtg2rwdy0-47">
          <mxGeometry y="33.10344827586207" width="48.46153846153846" height="41.37931034482759" as="geometry" />
        </mxCell>
        <mxCell id="vy_A0kVUEXBCtg2rwdy0-25" style="edgeStyle=none;shape=connector;rounded=0;orthogonalLoop=1;jettySize=auto;html=1;exitX=1;exitY=0.5;exitDx=0;exitDy=0;entryX=0;entryY=0.5;entryDx=0;entryDy=0;strokeColor=default;align=center;verticalAlign=middle;fontFamily=Helvetica;fontSize=11;fontColor=default;labelBackgroundColor=default;endArrow=classic;" edge="1" parent="vy_A0kVUEXBCtg2rwdy0-47" source="vy_A0kVUEXBCtg2rwdy0-8" target="vy_A0kVUEXBCtg2rwdy0-9">
          <mxGeometry relative="1" as="geometry" />
        </mxCell>
        <mxCell id="vy_A0kVUEXBCtg2rwdy0-26" style="edgeStyle=none;shape=connector;rounded=0;orthogonalLoop=1;jettySize=auto;html=1;exitX=1;exitY=0.5;exitDx=0;exitDy=0;entryX=0;entryY=0.5;entryDx=0;entryDy=0;strokeColor=default;align=center;verticalAlign=middle;fontFamily=Helvetica;fontSize=11;fontColor=default;labelBackgroundColor=default;endArrow=classic;" edge="1" parent="vy_A0kVUEXBCtg2rwdy0-47" source="vy_A0kVUEXBCtg2rwdy0-8" target="vy_A0kVUEXBCtg2rwdy0-10">
          <mxGeometry relative="1" as="geometry" />
        </mxCell>
        <mxCell id="vy_A0kVUEXBCtg2rwdy0-27" style="edgeStyle=none;shape=connector;rounded=0;orthogonalLoop=1;jettySize=auto;html=1;exitX=1;exitY=0.5;exitDx=0;exitDy=0;entryX=0;entryY=0.5;entryDx=0;entryDy=0;strokeColor=default;align=center;verticalAlign=middle;fontFamily=Helvetica;fontSize=11;fontColor=default;labelBackgroundColor=default;endArrow=classic;" edge="1" parent="vy_A0kVUEXBCtg2rwdy0-47" source="vy_A0kVUEXBCtg2rwdy0-8" target="vy_A0kVUEXBCtg2rwdy0-11">
          <mxGeometry relative="1" as="geometry" />
        </mxCell>
        <mxCell id="vy_A0kVUEXBCtg2rwdy0-28" style="edgeStyle=none;shape=connector;rounded=0;orthogonalLoop=1;jettySize=auto;html=1;exitX=1;exitY=0.5;exitDx=0;exitDy=0;entryX=0;entryY=0.5;entryDx=0;entryDy=0;strokeColor=default;align=center;verticalAlign=middle;fontFamily=Helvetica;fontSize=11;fontColor=default;labelBackgroundColor=default;endArrow=classic;" edge="1" parent="vy_A0kVUEXBCtg2rwdy0-47" source="vy_A0kVUEXBCtg2rwdy0-8" target="vy_A0kVUEXBCtg2rwdy0-12">
          <mxGeometry relative="1" as="geometry" />
        </mxCell>
        <mxCell id="vy_A0kVUEXBCtg2rwdy0-8" value="" style="ellipse;whiteSpace=wrap;html=1;fillColor=#ffe6cc;strokeColor=#d79b00;" vertex="1" parent="vy_A0kVUEXBCtg2rwdy0-47">
          <mxGeometry y="107.58620689655173" width="48.46153846153846" height="41.37931034482759" as="geometry" />
        </mxCell>
        <mxCell id="vy_A0kVUEXBCtg2rwdy0-35" style="edgeStyle=none;shape=connector;rounded=0;orthogonalLoop=1;jettySize=auto;html=1;exitX=1;exitY=0.5;exitDx=0;exitDy=0;entryX=0;entryY=0.5;entryDx=0;entryDy=0;strokeColor=default;align=center;verticalAlign=middle;fontFamily=Helvetica;fontSize=11;fontColor=default;labelBackgroundColor=default;endArrow=classic;" edge="1" parent="vy_A0kVUEXBCtg2rwdy0-47" source="vy_A0kVUEXBCtg2rwdy0-9" target="vy_A0kVUEXBCtg2rwdy0-13">
          <mxGeometry relative="1" as="geometry" />
        </mxCell>
        <mxCell id="vy_A0kVUEXBCtg2rwdy0-38" style="edgeStyle=none;shape=connector;rounded=0;orthogonalLoop=1;jettySize=auto;html=1;exitX=1;exitY=0.5;exitDx=0;exitDy=0;entryX=0;entryY=0.5;entryDx=0;entryDy=0;strokeColor=default;align=center;verticalAlign=middle;fontFamily=Helvetica;fontSize=11;fontColor=default;labelBackgroundColor=default;endArrow=classic;" edge="1" parent="vy_A0kVUEXBCtg2rwdy0-47" source="vy_A0kVUEXBCtg2rwdy0-9" target="vy_A0kVUEXBCtg2rwdy0-14">
          <mxGeometry relative="1" as="geometry" />
        </mxCell>
        <mxCell id="vy_A0kVUEXBCtg2rwdy0-9" value="" style="ellipse;whiteSpace=wrap;html=1;fillColor=#ffe6cc;strokeColor=#d79b00;" vertex="1" parent="vy_A0kVUEXBCtg2rwdy0-47">
          <mxGeometry x="80.76923076923077" width="48.46153846153846" height="41.37931034482759" as="geometry" />
        </mxCell>
        <mxCell id="vy_A0kVUEXBCtg2rwdy0-36" style="edgeStyle=none;shape=connector;rounded=0;orthogonalLoop=1;jettySize=auto;html=1;entryX=0;entryY=0.5;entryDx=0;entryDy=0;strokeColor=default;align=center;verticalAlign=middle;fontFamily=Helvetica;fontSize=11;fontColor=default;labelBackgroundColor=default;endArrow=classic;" edge="1" parent="vy_A0kVUEXBCtg2rwdy0-47" source="vy_A0kVUEXBCtg2rwdy0-10" target="vy_A0kVUEXBCtg2rwdy0-13">
          <mxGeometry relative="1" as="geometry" />
        </mxCell>
        <mxCell id="vy_A0kVUEXBCtg2rwdy0-39" style="edgeStyle=none;shape=connector;rounded=0;orthogonalLoop=1;jettySize=auto;html=1;exitX=1;exitY=0.5;exitDx=0;exitDy=0;entryX=0;entryY=0.5;entryDx=0;entryDy=0;strokeColor=default;align=center;verticalAlign=middle;fontFamily=Helvetica;fontSize=11;fontColor=default;labelBackgroundColor=default;endArrow=classic;" edge="1" parent="vy_A0kVUEXBCtg2rwdy0-47" source="vy_A0kVUEXBCtg2rwdy0-10" target="vy_A0kVUEXBCtg2rwdy0-14">
          <mxGeometry relative="1" as="geometry" />
        </mxCell>
        <mxCell id="vy_A0kVUEXBCtg2rwdy0-10" value="" style="ellipse;whiteSpace=wrap;html=1;fillColor=#ffe6cc;strokeColor=#d79b00;" vertex="1" parent="vy_A0kVUEXBCtg2rwdy0-47">
          <mxGeometry x="80.76923076923077" y="66.20689655172414" width="48.46153846153846" height="41.37931034482759" as="geometry" />
        </mxCell>
        <mxCell id="vy_A0kVUEXBCtg2rwdy0-40" style="edgeStyle=none;shape=connector;rounded=0;orthogonalLoop=1;jettySize=auto;html=1;exitX=1;exitY=0.5;exitDx=0;exitDy=0;entryX=0;entryY=0.5;entryDx=0;entryDy=0;strokeColor=default;align=center;verticalAlign=middle;fontFamily=Helvetica;fontSize=11;fontColor=default;labelBackgroundColor=default;endArrow=classic;" edge="1" parent="vy_A0kVUEXBCtg2rwdy0-47" source="vy_A0kVUEXBCtg2rwdy0-11" target="vy_A0kVUEXBCtg2rwdy0-13">
          <mxGeometry relative="1" as="geometry" />
        </mxCell>
        <mxCell id="vy_A0kVUEXBCtg2rwdy0-41" style="edgeStyle=none;shape=connector;rounded=0;orthogonalLoop=1;jettySize=auto;html=1;exitX=1;exitY=0.5;exitDx=0;exitDy=0;entryX=0;entryY=0.5;entryDx=0;entryDy=0;strokeColor=default;align=center;verticalAlign=middle;fontFamily=Helvetica;fontSize=11;fontColor=default;labelBackgroundColor=default;endArrow=classic;" edge="1" parent="vy_A0kVUEXBCtg2rwdy0-47" source="vy_A0kVUEXBCtg2rwdy0-11" target="vy_A0kVUEXBCtg2rwdy0-14">
          <mxGeometry relative="1" as="geometry" />
        </mxCell>
        <mxCell id="vy_A0kVUEXBCtg2rwdy0-11" value="" style="ellipse;whiteSpace=wrap;html=1;fillColor=#ffe6cc;strokeColor=#d79b00;" vertex="1" parent="vy_A0kVUEXBCtg2rwdy0-47">
          <mxGeometry x="80.76923076923077" y="132.41379310344828" width="48.46153846153846" height="41.37931034482759" as="geometry" />
        </mxCell>
        <mxCell id="vy_A0kVUEXBCtg2rwdy0-46" style="edgeStyle=none;shape=connector;rounded=0;orthogonalLoop=1;jettySize=auto;html=1;exitX=1;exitY=0.5;exitDx=0;exitDy=0;entryX=0;entryY=0.5;entryDx=0;entryDy=0;strokeColor=default;align=center;verticalAlign=middle;fontFamily=Helvetica;fontSize=11;fontColor=default;labelBackgroundColor=default;endArrow=classic;" edge="1" parent="vy_A0kVUEXBCtg2rwdy0-47" source="vy_A0kVUEXBCtg2rwdy0-12" target="vy_A0kVUEXBCtg2rwdy0-14">
          <mxGeometry relative="1" as="geometry" />
        </mxCell>
        <mxCell id="vy_A0kVUEXBCtg2rwdy0-12" value="" style="ellipse;whiteSpace=wrap;html=1;fillColor=#ffe6cc;strokeColor=#d79b00;" vertex="1" parent="vy_A0kVUEXBCtg2rwdy0-47">
          <mxGeometry x="80.76923076923077" y="198.6206896551724" width="48.46153846153846" height="41.37931034482759" as="geometry" />
        </mxCell>
        <mxCell id="vy_A0kVUEXBCtg2rwdy0-13" value="" style="ellipse;whiteSpace=wrap;html=1;fillColor=#ffe6cc;strokeColor=#d79b00;" vertex="1" parent="vy_A0kVUEXBCtg2rwdy0-47">
          <mxGeometry x="161.53846153846155" y="66.20689655172414" width="48.46153846153846" height="41.37931034482759" as="geometry" />
        </mxCell>
        <mxCell id="vy_A0kVUEXBCtg2rwdy0-14" value="" style="ellipse;whiteSpace=wrap;html=1;fillColor=#ffe6cc;strokeColor=#d79b00;" vertex="1" parent="vy_A0kVUEXBCtg2rwdy0-47">
          <mxGeometry x="161.53846153846155" y="132.41379310344828" width="48.46153846153846" height="41.37931034482759" as="geometry" />
        </mxCell>
        <mxCell id="vy_A0kVUEXBCtg2rwdy0-30" style="edgeStyle=none;shape=connector;rounded=0;orthogonalLoop=1;jettySize=auto;html=1;exitX=1;exitY=0.5;exitDx=0;exitDy=0;entryX=0;entryY=0.5;entryDx=0;entryDy=0;strokeColor=default;align=center;verticalAlign=middle;fontFamily=Helvetica;fontSize=11;fontColor=default;labelBackgroundColor=default;endArrow=classic;" edge="1" parent="vy_A0kVUEXBCtg2rwdy0-47" source="vy_A0kVUEXBCtg2rwdy0-15" target="vy_A0kVUEXBCtg2rwdy0-9">
          <mxGeometry relative="1" as="geometry" />
        </mxCell>
        <mxCell id="vy_A0kVUEXBCtg2rwdy0-31" style="edgeStyle=none;shape=connector;rounded=0;orthogonalLoop=1;jettySize=auto;html=1;exitX=1;exitY=0.5;exitDx=0;exitDy=0;entryX=0;entryY=0.5;entryDx=0;entryDy=0;strokeColor=default;align=center;verticalAlign=middle;fontFamily=Helvetica;fontSize=11;fontColor=default;labelBackgroundColor=default;endArrow=classic;" edge="1" parent="vy_A0kVUEXBCtg2rwdy0-47" source="vy_A0kVUEXBCtg2rwdy0-15" target="vy_A0kVUEXBCtg2rwdy0-10">
          <mxGeometry relative="1" as="geometry" />
        </mxCell>
        <mxCell id="vy_A0kVUEXBCtg2rwdy0-32" style="edgeStyle=none;shape=connector;rounded=0;orthogonalLoop=1;jettySize=auto;html=1;exitX=1;exitY=0.5;exitDx=0;exitDy=0;entryX=0;entryY=0.5;entryDx=0;entryDy=0;strokeColor=default;align=center;verticalAlign=middle;fontFamily=Helvetica;fontSize=11;fontColor=default;labelBackgroundColor=default;endArrow=classic;" edge="1" parent="vy_A0kVUEXBCtg2rwdy0-47" source="vy_A0kVUEXBCtg2rwdy0-15" target="vy_A0kVUEXBCtg2rwdy0-11">
          <mxGeometry relative="1" as="geometry" />
        </mxCell>
        <mxCell id="vy_A0kVUEXBCtg2rwdy0-33" style="edgeStyle=none;shape=connector;rounded=0;orthogonalLoop=1;jettySize=auto;html=1;exitX=1;exitY=0.5;exitDx=0;exitDy=0;entryX=0;entryY=0.5;entryDx=0;entryDy=0;strokeColor=default;align=center;verticalAlign=middle;fontFamily=Helvetica;fontSize=11;fontColor=default;labelBackgroundColor=default;endArrow=classic;" edge="1" parent="vy_A0kVUEXBCtg2rwdy0-47" source="vy_A0kVUEXBCtg2rwdy0-15" target="vy_A0kVUEXBCtg2rwdy0-12">
          <mxGeometry relative="1" as="geometry" />
        </mxCell>
        <mxCell id="vy_A0kVUEXBCtg2rwdy0-15" value="" style="ellipse;whiteSpace=wrap;html=1;fillColor=#ffe6cc;strokeColor=#d79b00;" vertex="1" parent="vy_A0kVUEXBCtg2rwdy0-47">
          <mxGeometry y="173.79310344827587" width="48.46153846153846" height="41.37931034482759" as="geometry" />
        </mxCell>
        <mxCell id="vy_A0kVUEXBCtg2rwdy0-44" style="edgeStyle=none;shape=connector;rounded=0;orthogonalLoop=1;jettySize=auto;html=1;exitX=1;exitY=0.5;exitDx=0;exitDy=0;entryX=0.05;entryY=0.38;entryDx=0;entryDy=0;entryPerimeter=0;strokeColor=default;align=center;verticalAlign=middle;fontFamily=Helvetica;fontSize=11;fontColor=default;labelBackgroundColor=default;endArrow=classic;" edge="1" parent="vy_A0kVUEXBCtg2rwdy0-47" source="vy_A0kVUEXBCtg2rwdy0-12" target="vy_A0kVUEXBCtg2rwdy0-13">
          <mxGeometry relative="1" as="geometry" />
        </mxCell>
        <mxCell id="vy_A0kVUEXBCtg2rwdy0-54" value="&lt;font style=&quot;font-size: 20px;&quot;&gt;服务端&lt;/font&gt;" style="text;html=1;align=center;verticalAlign=middle;resizable=0;points=[];autosize=1;strokeColor=none;fillColor=none;fontFamily=Helvetica;fontSize=11;fontColor=default;labelBackgroundColor=default;" vertex="1" parent="vy_A0kVUEXBCtg2rwdy0-59">
          <mxGeometry x="15.400000000000034" width="80" height="40" as="geometry" />
        </mxCell>
        <mxCell id="vy_A0kVUEXBCtg2rwdy0-56" value="" style="shape=singleArrow;whiteSpace=wrap;html=1;arrowWidth=0.4;arrowSize=0.4;verticalAlign=top;labelBackgroundColor=default;shadow=0;dashed=0;spacingTop=3;fillColor=#dae8fc;strokeColor=#6c8ebf;" vertex="1" parent="vy_A0kVUEXBCtg2rwdy0-59">
          <mxGeometry x="159.4" y="139.27" width="186" height="47.15" as="geometry" />
        </mxCell>
        <mxCell id="vy_A0kVUEXBCtg2rwdy0-58" value="&lt;font style=&quot;font-size: 20px;&quot;&gt;参数聚合&lt;/font&gt;" style="text;html=1;align=center;verticalAlign=middle;resizable=0;points=[];autosize=1;strokeColor=none;fillColor=none;fontFamily=Helvetica;fontSize=11;fontColor=default;labelBackgroundColor=default;" vertex="1" parent="vy_A0kVUEXBCtg2rwdy0-59">
          <mxGeometry x="185.4" y="90" width="100" height="40" as="geometry" />
        </mxCell>
        <mxCell id="vy_A0kVUEXBCtg2rwdy0-61" value="&lt;font style=&quot;font-size: 20px;&quot;&gt;聚合后的模型&lt;/font&gt;" style="text;html=1;align=center;verticalAlign=middle;resizable=0;points=[];autosize=1;strokeColor=none;fillColor=none;fontFamily=Helvetica;fontSize=11;fontColor=default;labelBackgroundColor=default;" vertex="1" parent="vy_A0kVUEXBCtg2rwdy0-60">
          <mxGeometry x="441" y="24.3" width="140" height="40" as="geometry" />
        </mxCell>
        <mxCell id="vy_A0kVUEXBCtg2rwdy0-63" style="edgeStyle=orthogonalEdgeStyle;shape=connector;rounded=0;orthogonalLoop=1;jettySize=auto;html=1;exitX=1;exitY=0.5;exitDx=0;exitDy=0;entryX=0.5;entryY=1;entryDx=0;entryDy=0;strokeColor=default;align=center;verticalAlign=middle;fontFamily=Helvetica;fontSize=11;fontColor=default;labelBackgroundColor=default;endArrow=classic;" edge="1" parent="1" source="vy_A0kVUEXBCtg2rwdy0-50" target="vy_A0kVUEXBCtg2rwdy0-69">
          <mxGeometry relative="1" as="geometry">
            <mxPoint x="560" y="693.5" as="targetPoint" />
            <Array as="points">
              <mxPoint x="890" y="122" />
              <mxPoint x="890" y="760" />
              <mxPoint x="725" y="760" />
            </Array>
          </mxGeometry>
        </mxCell>
        <mxCell id="vy_A0kVUEXBCtg2rwdy0-64" style="edgeStyle=orthogonalEdgeStyle;shape=connector;rounded=0;orthogonalLoop=1;jettySize=auto;html=1;entryX=0.5;entryY=1;entryDx=0;entryDy=0;strokeColor=default;align=center;verticalAlign=middle;fontFamily=Helvetica;fontSize=11;fontColor=default;labelBackgroundColor=default;endArrow=classic;" edge="1" parent="1" source="vy_A0kVUEXBCtg2rwdy0-50">
          <mxGeometry relative="1" as="geometry">
            <mxPoint x="335" y="685" as="targetPoint" />
            <Array as="points">
              <mxPoint x="890" y="122" />
              <mxPoint x="890" y="760" />
              <mxPoint x="335" y="760" />
            </Array>
          </mxGeometry>
        </mxCell>
        <mxCell id="vy_A0kVUEXBCtg2rwdy0-65" style="edgeStyle=orthogonalEdgeStyle;shape=connector;rounded=0;orthogonalLoop=1;jettySize=auto;html=1;exitX=1;exitY=0.5;exitDx=0;exitDy=0;entryX=0.5;entryY=1;entryDx=0;entryDy=0;strokeColor=default;align=center;verticalAlign=middle;fontFamily=Helvetica;fontSize=11;fontColor=default;labelBackgroundColor=default;endArrow=classic;" edge="1" parent="1" source="vy_A0kVUEXBCtg2rwdy0-50" target="vy_A0kVUEXBCtg2rwdy0-51">
          <mxGeometry relative="1" as="geometry">
            <Array as="points">
              <mxPoint x="890" y="122" />
              <mxPoint x="890" y="760" />
              <mxPoint x="125" y="760" />
            </Array>
          </mxGeometry>
        </mxCell>
        <mxCell id="vy_A0kVUEXBCtg2rwdy0-85" style="shape=connector;rounded=0;orthogonalLoop=1;jettySize=auto;html=1;exitX=0.5;exitY=0;exitDx=0;exitDy=0;entryX=0.5;entryY=1;entryDx=0;entryDy=0;strokeColor=default;align=center;verticalAlign=middle;fontFamily=Helvetica;fontSize=11;fontColor=default;labelBackgroundColor=default;endArrow=classic;" edge="1" parent="1" source="vy_A0kVUEXBCtg2rwdy0-67" target="vy_A0kVUEXBCtg2rwdy0-50">
          <mxGeometry relative="1" as="geometry" />
        </mxCell>
        <mxCell id="vy_A0kVUEXBCtg2rwdy0-67" value="" style="rounded=0;whiteSpace=wrap;html=1;fontFamily=Helvetica;fontSize=11;fontColor=default;labelBackgroundColor=default;fillColor=none;strokeColor=default;dashed=1;" vertex="1" parent="1">
          <mxGeometry x="244" y="455" width="170" height="230" as="geometry" />
        </mxCell>
        <mxCell id="vy_A0kVUEXBCtg2rwdy0-80" value="" style="group" vertex="1" connectable="0" parent="1">
          <mxGeometry x="480" y="561" width="78" height="18" as="geometry" />
        </mxCell>
        <mxCell id="vy_A0kVUEXBCtg2rwdy0-73" value="" style="ellipse;whiteSpace=wrap;html=1;aspect=fixed;fontFamily=Helvetica;fontSize=11;labelBackgroundColor=default;fillColor=light-dark(#0f0e0e, #ededed);" vertex="1" parent="vy_A0kVUEXBCtg2rwdy0-80">
          <mxGeometry width="18" height="18" as="geometry" />
        </mxCell>
        <mxCell id="vy_A0kVUEXBCtg2rwdy0-75" value="" style="ellipse;whiteSpace=wrap;html=1;aspect=fixed;fontFamily=Helvetica;fontSize=11;labelBackgroundColor=default;fillColor=light-dark(#0f0e0e, #ededed);" vertex="1" parent="vy_A0kVUEXBCtg2rwdy0-80">
          <mxGeometry x="30" width="18" height="18" as="geometry" />
        </mxCell>
        <mxCell id="vy_A0kVUEXBCtg2rwdy0-79" value="" style="ellipse;whiteSpace=wrap;html=1;aspect=fixed;fontFamily=Helvetica;fontSize=11;labelBackgroundColor=default;fillColor=light-dark(#0f0e0e, #ededed);" vertex="1" parent="vy_A0kVUEXBCtg2rwdy0-80">
          <mxGeometry x="60" width="18" height="18" as="geometry" />
        </mxCell>
        <mxCell id="vy_A0kVUEXBCtg2rwdy0-81" value="&lt;font style=&quot;font-size: 20px;&quot;&gt;客户端 1&lt;/font&gt;" style="text;html=1;align=center;verticalAlign=middle;resizable=0;points=[];autosize=1;strokeColor=none;fillColor=none;fontFamily=Helvetica;fontSize=11;fontColor=default;labelBackgroundColor=default;" vertex="1" parent="1">
          <mxGeometry x="75.00000000000003" y="470" width="100" height="40" as="geometry" />
        </mxCell>
        <mxCell id="vy_A0kVUEXBCtg2rwdy0-82" value="&lt;font style=&quot;font-size: 20px;&quot;&gt;客户端 2&lt;/font&gt;" style="text;html=1;align=center;verticalAlign=middle;resizable=0;points=[];autosize=1;strokeColor=none;fillColor=none;fontFamily=Helvetica;fontSize=11;fontColor=default;labelBackgroundColor=default;" vertex="1" parent="1">
          <mxGeometry x="279" y="470" width="100" height="40" as="geometry" />
        </mxCell>
        <mxCell id="vy_A0kVUEXBCtg2rwdy0-83" value="&lt;font style=&quot;font-size: 20px;&quot;&gt;客户端 n&lt;/font&gt;" style="text;html=1;align=center;verticalAlign=middle;resizable=0;points=[];autosize=1;strokeColor=none;fillColor=none;fontFamily=Helvetica;fontSize=11;fontColor=default;labelBackgroundColor=default;" vertex="1" parent="1">
          <mxGeometry x="675.5" y="458.5" width="100" height="40" as="geometry" />
        </mxCell>
        <mxCell id="vy_A0kVUEXBCtg2rwdy0-86" style="shape=connector;rounded=0;orthogonalLoop=1;jettySize=auto;html=1;entryX=0.489;entryY=0.996;entryDx=0;entryDy=0;entryPerimeter=0;strokeColor=default;align=center;verticalAlign=middle;fontFamily=Helvetica;fontSize=11;fontColor=default;labelBackgroundColor=default;endArrow=classic;exitX=0.5;exitY=0;exitDx=0;exitDy=0;" edge="1" parent="1" source="vy_A0kVUEXBCtg2rwdy0-69" target="vy_A0kVUEXBCtg2rwdy0-50">
          <mxGeometry relative="1" as="geometry" />
        </mxCell>
        <mxCell id="vy_A0kVUEXBCtg2rwdy0-87" value="" style="group" vertex="1" connectable="0" parent="1">
          <mxGeometry x="130" y="310" width="80" height="100" as="geometry" />
        </mxCell>
        <mxCell id="vy_A0kVUEXBCtg2rwdy0-88" style="rounded=0;orthogonalLoop=1;jettySize=auto;html=1;exitX=1;exitY=0.5;exitDx=0;exitDy=0;" edge="1" parent="vy_A0kVUEXBCtg2rwdy0-87" source="vy_A0kVUEXBCtg2rwdy0-92" target="vy_A0kVUEXBCtg2rwdy0-100">
          <mxGeometry relative="1" as="geometry" />
        </mxCell>
        <mxCell id="vy_A0kVUEXBCtg2rwdy0-89" style="rounded=0;orthogonalLoop=1;jettySize=auto;html=1;exitX=1;exitY=0.5;exitDx=0;exitDy=0;entryX=0;entryY=0.5;entryDx=0;entryDy=0;" edge="1" parent="vy_A0kVUEXBCtg2rwdy0-87" source="vy_A0kVUEXBCtg2rwdy0-92" target="vy_A0kVUEXBCtg2rwdy0-103">
          <mxGeometry relative="1" as="geometry" />
        </mxCell>
        <mxCell id="vy_A0kVUEXBCtg2rwdy0-90" style="rounded=0;orthogonalLoop=1;jettySize=auto;html=1;exitX=1;exitY=0.5;exitDx=0;exitDy=0;entryX=0;entryY=0.5;entryDx=0;entryDy=0;" edge="1" parent="vy_A0kVUEXBCtg2rwdy0-87" source="vy_A0kVUEXBCtg2rwdy0-92" target="vy_A0kVUEXBCtg2rwdy0-106">
          <mxGeometry relative="1" as="geometry" />
        </mxCell>
        <mxCell id="vy_A0kVUEXBCtg2rwdy0-91" style="rounded=0;orthogonalLoop=1;jettySize=auto;html=1;exitX=1;exitY=0.5;exitDx=0;exitDy=0;entryX=0;entryY=0.5;entryDx=0;entryDy=0;" edge="1" parent="vy_A0kVUEXBCtg2rwdy0-87" source="vy_A0kVUEXBCtg2rwdy0-92" target="vy_A0kVUEXBCtg2rwdy0-108">
          <mxGeometry relative="1" as="geometry" />
        </mxCell>
        <mxCell id="vy_A0kVUEXBCtg2rwdy0-92" value="" style="ellipse;whiteSpace=wrap;html=1;fillColor=#f8cecc;strokeColor=#b85450;" vertex="1" parent="vy_A0kVUEXBCtg2rwdy0-87">
          <mxGeometry y="13.793103448275861" width="18.461538461538463" height="17.24137931034483" as="geometry" />
        </mxCell>
        <mxCell id="vy_A0kVUEXBCtg2rwdy0-93" style="edgeStyle=none;shape=connector;rounded=0;orthogonalLoop=1;jettySize=auto;html=1;exitX=1;exitY=0.5;exitDx=0;exitDy=0;entryX=0;entryY=0.5;entryDx=0;entryDy=0;strokeColor=default;align=center;verticalAlign=middle;fontFamily=Helvetica;fontSize=11;fontColor=default;labelBackgroundColor=default;endArrow=classic;" edge="1" parent="vy_A0kVUEXBCtg2rwdy0-87" source="vy_A0kVUEXBCtg2rwdy0-97" target="vy_A0kVUEXBCtg2rwdy0-100">
          <mxGeometry relative="1" as="geometry" />
        </mxCell>
        <mxCell id="vy_A0kVUEXBCtg2rwdy0-94" style="edgeStyle=none;shape=connector;rounded=0;orthogonalLoop=1;jettySize=auto;html=1;exitX=1;exitY=0.5;exitDx=0;exitDy=0;entryX=0;entryY=0.5;entryDx=0;entryDy=0;strokeColor=default;align=center;verticalAlign=middle;fontFamily=Helvetica;fontSize=11;fontColor=default;labelBackgroundColor=default;endArrow=classic;" edge="1" parent="vy_A0kVUEXBCtg2rwdy0-87" source="vy_A0kVUEXBCtg2rwdy0-97" target="vy_A0kVUEXBCtg2rwdy0-103">
          <mxGeometry relative="1" as="geometry" />
        </mxCell>
        <mxCell id="vy_A0kVUEXBCtg2rwdy0-95" style="edgeStyle=none;shape=connector;rounded=0;orthogonalLoop=1;jettySize=auto;html=1;exitX=1;exitY=0.5;exitDx=0;exitDy=0;entryX=0;entryY=0.5;entryDx=0;entryDy=0;strokeColor=default;align=center;verticalAlign=middle;fontFamily=Helvetica;fontSize=11;fontColor=default;labelBackgroundColor=default;endArrow=classic;" edge="1" parent="vy_A0kVUEXBCtg2rwdy0-87" source="vy_A0kVUEXBCtg2rwdy0-97" target="vy_A0kVUEXBCtg2rwdy0-106">
          <mxGeometry relative="1" as="geometry" />
        </mxCell>
        <mxCell id="vy_A0kVUEXBCtg2rwdy0-96" style="edgeStyle=none;shape=connector;rounded=0;orthogonalLoop=1;jettySize=auto;html=1;exitX=1;exitY=0.5;exitDx=0;exitDy=0;entryX=0;entryY=0.5;entryDx=0;entryDy=0;strokeColor=default;align=center;verticalAlign=middle;fontFamily=Helvetica;fontSize=11;fontColor=default;labelBackgroundColor=default;endArrow=classic;" edge="1" parent="vy_A0kVUEXBCtg2rwdy0-87" source="vy_A0kVUEXBCtg2rwdy0-97" target="vy_A0kVUEXBCtg2rwdy0-108">
          <mxGeometry relative="1" as="geometry" />
        </mxCell>
        <mxCell id="vy_A0kVUEXBCtg2rwdy0-97" value="" style="ellipse;whiteSpace=wrap;html=1;fillColor=#f8cecc;strokeColor=#b85450;" vertex="1" parent="vy_A0kVUEXBCtg2rwdy0-87">
          <mxGeometry y="44.827586206896555" width="18.461538461538463" height="17.24137931034483" as="geometry" />
        </mxCell>
        <mxCell id="vy_A0kVUEXBCtg2rwdy0-98" style="edgeStyle=none;shape=connector;rounded=0;orthogonalLoop=1;jettySize=auto;html=1;exitX=1;exitY=0.5;exitDx=0;exitDy=0;entryX=0;entryY=0.5;entryDx=0;entryDy=0;strokeColor=default;align=center;verticalAlign=middle;fontFamily=Helvetica;fontSize=11;fontColor=default;labelBackgroundColor=default;endArrow=classic;" edge="1" parent="vy_A0kVUEXBCtg2rwdy0-87" source="vy_A0kVUEXBCtg2rwdy0-100" target="vy_A0kVUEXBCtg2rwdy0-109">
          <mxGeometry relative="1" as="geometry" />
        </mxCell>
        <mxCell id="vy_A0kVUEXBCtg2rwdy0-99" style="edgeStyle=none;shape=connector;rounded=0;orthogonalLoop=1;jettySize=auto;html=1;exitX=1;exitY=0.5;exitDx=0;exitDy=0;entryX=0;entryY=0.5;entryDx=0;entryDy=0;strokeColor=default;align=center;verticalAlign=middle;fontFamily=Helvetica;fontSize=11;fontColor=default;labelBackgroundColor=default;endArrow=classic;" edge="1" parent="vy_A0kVUEXBCtg2rwdy0-87" source="vy_A0kVUEXBCtg2rwdy0-100" target="vy_A0kVUEXBCtg2rwdy0-110">
          <mxGeometry relative="1" as="geometry" />
        </mxCell>
        <mxCell id="vy_A0kVUEXBCtg2rwdy0-100" value="" style="ellipse;whiteSpace=wrap;html=1;fillColor=#f8cecc;strokeColor=#b85450;" vertex="1" parent="vy_A0kVUEXBCtg2rwdy0-87">
          <mxGeometry x="30.769230769230774" width="18.461538461538463" height="17.24137931034483" as="geometry" />
        </mxCell>
        <mxCell id="vy_A0kVUEXBCtg2rwdy0-101" style="edgeStyle=none;shape=connector;rounded=0;orthogonalLoop=1;jettySize=auto;html=1;entryX=0;entryY=0.5;entryDx=0;entryDy=0;strokeColor=default;align=center;verticalAlign=middle;fontFamily=Helvetica;fontSize=11;fontColor=default;labelBackgroundColor=default;endArrow=classic;" edge="1" parent="vy_A0kVUEXBCtg2rwdy0-87" source="vy_A0kVUEXBCtg2rwdy0-103" target="vy_A0kVUEXBCtg2rwdy0-109">
          <mxGeometry relative="1" as="geometry" />
        </mxCell>
        <mxCell id="vy_A0kVUEXBCtg2rwdy0-102" style="edgeStyle=none;shape=connector;rounded=0;orthogonalLoop=1;jettySize=auto;html=1;exitX=1;exitY=0.5;exitDx=0;exitDy=0;entryX=0;entryY=0.5;entryDx=0;entryDy=0;strokeColor=default;align=center;verticalAlign=middle;fontFamily=Helvetica;fontSize=11;fontColor=default;labelBackgroundColor=default;endArrow=classic;" edge="1" parent="vy_A0kVUEXBCtg2rwdy0-87" source="vy_A0kVUEXBCtg2rwdy0-103" target="vy_A0kVUEXBCtg2rwdy0-110">
          <mxGeometry relative="1" as="geometry" />
        </mxCell>
        <mxCell id="vy_A0kVUEXBCtg2rwdy0-103" value="" style="ellipse;whiteSpace=wrap;html=1;fillColor=#f8cecc;strokeColor=#b85450;" vertex="1" parent="vy_A0kVUEXBCtg2rwdy0-87">
          <mxGeometry x="30.769230769230774" y="27.586206896551722" width="18.461538461538463" height="17.24137931034483" as="geometry" />
        </mxCell>
        <mxCell id="vy_A0kVUEXBCtg2rwdy0-104" style="edgeStyle=none;shape=connector;rounded=0;orthogonalLoop=1;jettySize=auto;html=1;exitX=1;exitY=0.5;exitDx=0;exitDy=0;entryX=0;entryY=0.5;entryDx=0;entryDy=0;strokeColor=default;align=center;verticalAlign=middle;fontFamily=Helvetica;fontSize=11;fontColor=default;labelBackgroundColor=default;endArrow=classic;" edge="1" parent="vy_A0kVUEXBCtg2rwdy0-87" source="vy_A0kVUEXBCtg2rwdy0-106" target="vy_A0kVUEXBCtg2rwdy0-109">
          <mxGeometry relative="1" as="geometry" />
        </mxCell>
        <mxCell id="vy_A0kVUEXBCtg2rwdy0-105" style="edgeStyle=none;shape=connector;rounded=0;orthogonalLoop=1;jettySize=auto;html=1;exitX=1;exitY=0.5;exitDx=0;exitDy=0;entryX=0;entryY=0.5;entryDx=0;entryDy=0;strokeColor=default;align=center;verticalAlign=middle;fontFamily=Helvetica;fontSize=11;fontColor=default;labelBackgroundColor=default;endArrow=classic;" edge="1" parent="vy_A0kVUEXBCtg2rwdy0-87" source="vy_A0kVUEXBCtg2rwdy0-106" target="vy_A0kVUEXBCtg2rwdy0-110">
          <mxGeometry relative="1" as="geometry" />
        </mxCell>
        <mxCell id="vy_A0kVUEXBCtg2rwdy0-106" value="" style="ellipse;whiteSpace=wrap;html=1;fillColor=#f8cecc;strokeColor=#b85450;" vertex="1" parent="vy_A0kVUEXBCtg2rwdy0-87">
          <mxGeometry x="30.769230769230774" y="55.172413793103445" width="18.461538461538463" height="17.24137931034483" as="geometry" />
        </mxCell>
        <mxCell id="vy_A0kVUEXBCtg2rwdy0-107" style="edgeStyle=none;shape=connector;rounded=0;orthogonalLoop=1;jettySize=auto;html=1;exitX=1;exitY=0.5;exitDx=0;exitDy=0;entryX=0;entryY=0.5;entryDx=0;entryDy=0;strokeColor=default;align=center;verticalAlign=middle;fontFamily=Helvetica;fontSize=11;fontColor=default;labelBackgroundColor=default;endArrow=classic;" edge="1" parent="vy_A0kVUEXBCtg2rwdy0-87" source="vy_A0kVUEXBCtg2rwdy0-108" target="vy_A0kVUEXBCtg2rwdy0-110">
          <mxGeometry relative="1" as="geometry" />
        </mxCell>
        <mxCell id="vy_A0kVUEXBCtg2rwdy0-108" value="" style="ellipse;whiteSpace=wrap;html=1;fillColor=#f8cecc;strokeColor=#b85450;" vertex="1" parent="vy_A0kVUEXBCtg2rwdy0-87">
          <mxGeometry x="30.769230769230774" y="82.75862068965517" width="18.461538461538463" height="17.24137931034483" as="geometry" />
        </mxCell>
        <mxCell id="vy_A0kVUEXBCtg2rwdy0-109" value="" style="ellipse;whiteSpace=wrap;html=1;fillColor=#f8cecc;strokeColor=#b85450;" vertex="1" parent="vy_A0kVUEXBCtg2rwdy0-87">
          <mxGeometry x="61.53846153846155" y="27.586206896551722" width="18.461538461538463" height="17.24137931034483" as="geometry" />
        </mxCell>
        <mxCell id="vy_A0kVUEXBCtg2rwdy0-110" value="" style="ellipse;whiteSpace=wrap;html=1;fillColor=#f8cecc;strokeColor=#b85450;" vertex="1" parent="vy_A0kVUEXBCtg2rwdy0-87">
          <mxGeometry x="61.53846153846155" y="55.172413793103445" width="18.461538461538463" height="17.24137931034483" as="geometry" />
        </mxCell>
        <mxCell id="vy_A0kVUEXBCtg2rwdy0-111" style="edgeStyle=none;shape=connector;rounded=0;orthogonalLoop=1;jettySize=auto;html=1;exitX=1;exitY=0.5;exitDx=0;exitDy=0;entryX=0;entryY=0.5;entryDx=0;entryDy=0;strokeColor=default;align=center;verticalAlign=middle;fontFamily=Helvetica;fontSize=11;fontColor=default;labelBackgroundColor=default;endArrow=classic;" edge="1" parent="vy_A0kVUEXBCtg2rwdy0-87" source="vy_A0kVUEXBCtg2rwdy0-115" target="vy_A0kVUEXBCtg2rwdy0-100">
          <mxGeometry relative="1" as="geometry" />
        </mxCell>
        <mxCell id="vy_A0kVUEXBCtg2rwdy0-112" style="edgeStyle=none;shape=connector;rounded=0;orthogonalLoop=1;jettySize=auto;html=1;exitX=1;exitY=0.5;exitDx=0;exitDy=0;entryX=0;entryY=0.5;entryDx=0;entryDy=0;strokeColor=default;align=center;verticalAlign=middle;fontFamily=Helvetica;fontSize=11;fontColor=default;labelBackgroundColor=default;endArrow=classic;" edge="1" parent="vy_A0kVUEXBCtg2rwdy0-87" source="vy_A0kVUEXBCtg2rwdy0-115" target="vy_A0kVUEXBCtg2rwdy0-103">
          <mxGeometry relative="1" as="geometry" />
        </mxCell>
        <mxCell id="vy_A0kVUEXBCtg2rwdy0-113" style="edgeStyle=none;shape=connector;rounded=0;orthogonalLoop=1;jettySize=auto;html=1;exitX=1;exitY=0.5;exitDx=0;exitDy=0;entryX=0;entryY=0.5;entryDx=0;entryDy=0;strokeColor=default;align=center;verticalAlign=middle;fontFamily=Helvetica;fontSize=11;fontColor=default;labelBackgroundColor=default;endArrow=classic;" edge="1" parent="vy_A0kVUEXBCtg2rwdy0-87" source="vy_A0kVUEXBCtg2rwdy0-115" target="vy_A0kVUEXBCtg2rwdy0-106">
          <mxGeometry relative="1" as="geometry" />
        </mxCell>
        <mxCell id="vy_A0kVUEXBCtg2rwdy0-114" style="edgeStyle=none;shape=connector;rounded=0;orthogonalLoop=1;jettySize=auto;html=1;exitX=1;exitY=0.5;exitDx=0;exitDy=0;entryX=0;entryY=0.5;entryDx=0;entryDy=0;strokeColor=default;align=center;verticalAlign=middle;fontFamily=Helvetica;fontSize=11;fontColor=default;labelBackgroundColor=default;endArrow=classic;" edge="1" parent="vy_A0kVUEXBCtg2rwdy0-87" source="vy_A0kVUEXBCtg2rwdy0-115" target="vy_A0kVUEXBCtg2rwdy0-108">
          <mxGeometry relative="1" as="geometry" />
        </mxCell>
        <mxCell id="vy_A0kVUEXBCtg2rwdy0-115" value="" style="ellipse;whiteSpace=wrap;html=1;fillColor=#f8cecc;strokeColor=#b85450;" vertex="1" parent="vy_A0kVUEXBCtg2rwdy0-87">
          <mxGeometry y="72.41379310344828" width="18.461538461538463" height="17.24137931034483" as="geometry" />
        </mxCell>
        <mxCell id="vy_A0kVUEXBCtg2rwdy0-116" style="edgeStyle=none;shape=connector;rounded=0;orthogonalLoop=1;jettySize=auto;html=1;exitX=1;exitY=0.5;exitDx=0;exitDy=0;entryX=0.05;entryY=0.38;entryDx=0;entryDy=0;entryPerimeter=0;strokeColor=default;align=center;verticalAlign=middle;fontFamily=Helvetica;fontSize=11;fontColor=default;labelBackgroundColor=default;endArrow=classic;" edge="1" parent="vy_A0kVUEXBCtg2rwdy0-87" source="vy_A0kVUEXBCtg2rwdy0-108" target="vy_A0kVUEXBCtg2rwdy0-109">
          <mxGeometry relative="1" as="geometry" />
        </mxCell>
        <mxCell id="vy_A0kVUEXBCtg2rwdy0-118" value="" style="group" vertex="1" connectable="0" parent="1">
          <mxGeometry x="400" y="348.5" width="80" height="100" as="geometry" />
        </mxCell>
        <mxCell id="vy_A0kVUEXBCtg2rwdy0-119" style="rounded=0;orthogonalLoop=1;jettySize=auto;html=1;exitX=1;exitY=0.5;exitDx=0;exitDy=0;" edge="1" parent="vy_A0kVUEXBCtg2rwdy0-118" source="vy_A0kVUEXBCtg2rwdy0-123" target="vy_A0kVUEXBCtg2rwdy0-131">
          <mxGeometry relative="1" as="geometry" />
        </mxCell>
        <mxCell id="vy_A0kVUEXBCtg2rwdy0-120" style="rounded=0;orthogonalLoop=1;jettySize=auto;html=1;exitX=1;exitY=0.5;exitDx=0;exitDy=0;entryX=0;entryY=0.5;entryDx=0;entryDy=0;" edge="1" parent="vy_A0kVUEXBCtg2rwdy0-118" source="vy_A0kVUEXBCtg2rwdy0-123" target="vy_A0kVUEXBCtg2rwdy0-134">
          <mxGeometry relative="1" as="geometry" />
        </mxCell>
        <mxCell id="vy_A0kVUEXBCtg2rwdy0-121" style="rounded=0;orthogonalLoop=1;jettySize=auto;html=1;exitX=1;exitY=0.5;exitDx=0;exitDy=0;entryX=0;entryY=0.5;entryDx=0;entryDy=0;" edge="1" parent="vy_A0kVUEXBCtg2rwdy0-118" source="vy_A0kVUEXBCtg2rwdy0-123" target="vy_A0kVUEXBCtg2rwdy0-137">
          <mxGeometry relative="1" as="geometry" />
        </mxCell>
        <mxCell id="vy_A0kVUEXBCtg2rwdy0-122" style="rounded=0;orthogonalLoop=1;jettySize=auto;html=1;exitX=1;exitY=0.5;exitDx=0;exitDy=0;entryX=0;entryY=0.5;entryDx=0;entryDy=0;" edge="1" parent="vy_A0kVUEXBCtg2rwdy0-118" source="vy_A0kVUEXBCtg2rwdy0-123" target="vy_A0kVUEXBCtg2rwdy0-139">
          <mxGeometry relative="1" as="geometry" />
        </mxCell>
        <mxCell id="vy_A0kVUEXBCtg2rwdy0-123" value="" style="ellipse;whiteSpace=wrap;html=1;fillColor=#e1d5e7;strokeColor=#9673a6;" vertex="1" parent="vy_A0kVUEXBCtg2rwdy0-118">
          <mxGeometry y="13.793103448275861" width="18.461538461538463" height="17.24137931034483" as="geometry" />
        </mxCell>
        <mxCell id="vy_A0kVUEXBCtg2rwdy0-124" style="edgeStyle=none;shape=connector;rounded=0;orthogonalLoop=1;jettySize=auto;html=1;exitX=1;exitY=0.5;exitDx=0;exitDy=0;entryX=0;entryY=0.5;entryDx=0;entryDy=0;strokeColor=default;align=center;verticalAlign=middle;fontFamily=Helvetica;fontSize=11;fontColor=default;labelBackgroundColor=default;endArrow=classic;" edge="1" parent="vy_A0kVUEXBCtg2rwdy0-118" source="vy_A0kVUEXBCtg2rwdy0-128" target="vy_A0kVUEXBCtg2rwdy0-131">
          <mxGeometry relative="1" as="geometry" />
        </mxCell>
        <mxCell id="vy_A0kVUEXBCtg2rwdy0-125" style="edgeStyle=none;shape=connector;rounded=0;orthogonalLoop=1;jettySize=auto;html=1;exitX=1;exitY=0.5;exitDx=0;exitDy=0;entryX=0;entryY=0.5;entryDx=0;entryDy=0;strokeColor=default;align=center;verticalAlign=middle;fontFamily=Helvetica;fontSize=11;fontColor=default;labelBackgroundColor=default;endArrow=classic;" edge="1" parent="vy_A0kVUEXBCtg2rwdy0-118" source="vy_A0kVUEXBCtg2rwdy0-128" target="vy_A0kVUEXBCtg2rwdy0-134">
          <mxGeometry relative="1" as="geometry" />
        </mxCell>
        <mxCell id="vy_A0kVUEXBCtg2rwdy0-126" style="edgeStyle=none;shape=connector;rounded=0;orthogonalLoop=1;jettySize=auto;html=1;exitX=1;exitY=0.5;exitDx=0;exitDy=0;entryX=0;entryY=0.5;entryDx=0;entryDy=0;strokeColor=default;align=center;verticalAlign=middle;fontFamily=Helvetica;fontSize=11;fontColor=default;labelBackgroundColor=default;endArrow=classic;" edge="1" parent="vy_A0kVUEXBCtg2rwdy0-118" source="vy_A0kVUEXBCtg2rwdy0-128" target="vy_A0kVUEXBCtg2rwdy0-137">
          <mxGeometry relative="1" as="geometry" />
        </mxCell>
        <mxCell id="vy_A0kVUEXBCtg2rwdy0-127" style="edgeStyle=none;shape=connector;rounded=0;orthogonalLoop=1;jettySize=auto;html=1;exitX=1;exitY=0.5;exitDx=0;exitDy=0;entryX=0;entryY=0.5;entryDx=0;entryDy=0;strokeColor=default;align=center;verticalAlign=middle;fontFamily=Helvetica;fontSize=11;fontColor=default;labelBackgroundColor=default;endArrow=classic;" edge="1" parent="vy_A0kVUEXBCtg2rwdy0-118" source="vy_A0kVUEXBCtg2rwdy0-128" target="vy_A0kVUEXBCtg2rwdy0-139">
          <mxGeometry relative="1" as="geometry" />
        </mxCell>
        <mxCell id="vy_A0kVUEXBCtg2rwdy0-128" value="" style="ellipse;whiteSpace=wrap;html=1;fillColor=#e1d5e7;strokeColor=#9673a6;" vertex="1" parent="vy_A0kVUEXBCtg2rwdy0-118">
          <mxGeometry y="44.827586206896555" width="18.461538461538463" height="17.24137931034483" as="geometry" />
        </mxCell>
        <mxCell id="vy_A0kVUEXBCtg2rwdy0-129" style="edgeStyle=none;shape=connector;rounded=0;orthogonalLoop=1;jettySize=auto;html=1;exitX=1;exitY=0.5;exitDx=0;exitDy=0;entryX=0;entryY=0.5;entryDx=0;entryDy=0;strokeColor=default;align=center;verticalAlign=middle;fontFamily=Helvetica;fontSize=11;fontColor=default;labelBackgroundColor=default;endArrow=classic;" edge="1" parent="vy_A0kVUEXBCtg2rwdy0-118" source="vy_A0kVUEXBCtg2rwdy0-131" target="vy_A0kVUEXBCtg2rwdy0-140">
          <mxGeometry relative="1" as="geometry" />
        </mxCell>
        <mxCell id="vy_A0kVUEXBCtg2rwdy0-130" style="edgeStyle=none;shape=connector;rounded=0;orthogonalLoop=1;jettySize=auto;html=1;exitX=1;exitY=0.5;exitDx=0;exitDy=0;entryX=0;entryY=0.5;entryDx=0;entryDy=0;strokeColor=default;align=center;verticalAlign=middle;fontFamily=Helvetica;fontSize=11;fontColor=default;labelBackgroundColor=default;endArrow=classic;" edge="1" parent="vy_A0kVUEXBCtg2rwdy0-118" source="vy_A0kVUEXBCtg2rwdy0-131" target="vy_A0kVUEXBCtg2rwdy0-141">
          <mxGeometry relative="1" as="geometry" />
        </mxCell>
        <mxCell id="vy_A0kVUEXBCtg2rwdy0-131" value="" style="ellipse;whiteSpace=wrap;html=1;fillColor=#e1d5e7;strokeColor=#9673a6;" vertex="1" parent="vy_A0kVUEXBCtg2rwdy0-118">
          <mxGeometry x="30.769230769230774" width="18.461538461538463" height="17.24137931034483" as="geometry" />
        </mxCell>
        <mxCell id="vy_A0kVUEXBCtg2rwdy0-132" style="edgeStyle=none;shape=connector;rounded=0;orthogonalLoop=1;jettySize=auto;html=1;entryX=0;entryY=0.5;entryDx=0;entryDy=0;strokeColor=default;align=center;verticalAlign=middle;fontFamily=Helvetica;fontSize=11;fontColor=default;labelBackgroundColor=default;endArrow=classic;" edge="1" parent="vy_A0kVUEXBCtg2rwdy0-118" source="vy_A0kVUEXBCtg2rwdy0-134" target="vy_A0kVUEXBCtg2rwdy0-140">
          <mxGeometry relative="1" as="geometry" />
        </mxCell>
        <mxCell id="vy_A0kVUEXBCtg2rwdy0-133" style="edgeStyle=none;shape=connector;rounded=0;orthogonalLoop=1;jettySize=auto;html=1;exitX=1;exitY=0.5;exitDx=0;exitDy=0;entryX=0;entryY=0.5;entryDx=0;entryDy=0;strokeColor=default;align=center;verticalAlign=middle;fontFamily=Helvetica;fontSize=11;fontColor=default;labelBackgroundColor=default;endArrow=classic;" edge="1" parent="vy_A0kVUEXBCtg2rwdy0-118" source="vy_A0kVUEXBCtg2rwdy0-134" target="vy_A0kVUEXBCtg2rwdy0-141">
          <mxGeometry relative="1" as="geometry" />
        </mxCell>
        <mxCell id="vy_A0kVUEXBCtg2rwdy0-134" value="" style="ellipse;whiteSpace=wrap;html=1;fillColor=#e1d5e7;strokeColor=#9673a6;" vertex="1" parent="vy_A0kVUEXBCtg2rwdy0-118">
          <mxGeometry x="30.769230769230774" y="27.586206896551722" width="18.461538461538463" height="17.24137931034483" as="geometry" />
        </mxCell>
        <mxCell id="vy_A0kVUEXBCtg2rwdy0-135" style="edgeStyle=none;shape=connector;rounded=0;orthogonalLoop=1;jettySize=auto;html=1;exitX=1;exitY=0.5;exitDx=0;exitDy=0;entryX=0;entryY=0.5;entryDx=0;entryDy=0;strokeColor=default;align=center;verticalAlign=middle;fontFamily=Helvetica;fontSize=11;fontColor=default;labelBackgroundColor=default;endArrow=classic;" edge="1" parent="vy_A0kVUEXBCtg2rwdy0-118" source="vy_A0kVUEXBCtg2rwdy0-137" target="vy_A0kVUEXBCtg2rwdy0-140">
          <mxGeometry relative="1" as="geometry" />
        </mxCell>
        <mxCell id="vy_A0kVUEXBCtg2rwdy0-136" style="edgeStyle=none;shape=connector;rounded=0;orthogonalLoop=1;jettySize=auto;html=1;exitX=1;exitY=0.5;exitDx=0;exitDy=0;entryX=0;entryY=0.5;entryDx=0;entryDy=0;strokeColor=default;align=center;verticalAlign=middle;fontFamily=Helvetica;fontSize=11;fontColor=default;labelBackgroundColor=default;endArrow=classic;" edge="1" parent="vy_A0kVUEXBCtg2rwdy0-118" source="vy_A0kVUEXBCtg2rwdy0-137" target="vy_A0kVUEXBCtg2rwdy0-141">
          <mxGeometry relative="1" as="geometry" />
        </mxCell>
        <mxCell id="vy_A0kVUEXBCtg2rwdy0-137" value="" style="ellipse;whiteSpace=wrap;html=1;fillColor=#e1d5e7;strokeColor=#9673a6;" vertex="1" parent="vy_A0kVUEXBCtg2rwdy0-118">
          <mxGeometry x="30.769230769230774" y="55.172413793103445" width="18.461538461538463" height="17.24137931034483" as="geometry" />
        </mxCell>
        <mxCell id="vy_A0kVUEXBCtg2rwdy0-138" style="edgeStyle=none;shape=connector;rounded=0;orthogonalLoop=1;jettySize=auto;html=1;exitX=1;exitY=0.5;exitDx=0;exitDy=0;entryX=0;entryY=0.5;entryDx=0;entryDy=0;strokeColor=default;align=center;verticalAlign=middle;fontFamily=Helvetica;fontSize=11;fontColor=default;labelBackgroundColor=default;endArrow=classic;" edge="1" parent="vy_A0kVUEXBCtg2rwdy0-118" source="vy_A0kVUEXBCtg2rwdy0-139" target="vy_A0kVUEXBCtg2rwdy0-141">
          <mxGeometry relative="1" as="geometry" />
        </mxCell>
        <mxCell id="vy_A0kVUEXBCtg2rwdy0-139" value="" style="ellipse;whiteSpace=wrap;html=1;fillColor=#e1d5e7;strokeColor=#9673a6;" vertex="1" parent="vy_A0kVUEXBCtg2rwdy0-118">
          <mxGeometry x="30.769230769230774" y="82.75862068965517" width="18.461538461538463" height="17.24137931034483" as="geometry" />
        </mxCell>
        <mxCell id="vy_A0kVUEXBCtg2rwdy0-140" value="" style="ellipse;whiteSpace=wrap;html=1;fillColor=#e1d5e7;strokeColor=#9673a6;" vertex="1" parent="vy_A0kVUEXBCtg2rwdy0-118">
          <mxGeometry x="61.53846153846155" y="27.586206896551722" width="18.461538461538463" height="17.24137931034483" as="geometry" />
        </mxCell>
        <mxCell id="vy_A0kVUEXBCtg2rwdy0-141" value="" style="ellipse;whiteSpace=wrap;html=1;fillColor=#e1d5e7;strokeColor=#9673a6;" vertex="1" parent="vy_A0kVUEXBCtg2rwdy0-118">
          <mxGeometry x="61.53846153846155" y="55.172413793103445" width="18.461538461538463" height="17.24137931034483" as="geometry" />
        </mxCell>
        <mxCell id="vy_A0kVUEXBCtg2rwdy0-142" style="edgeStyle=none;shape=connector;rounded=0;orthogonalLoop=1;jettySize=auto;html=1;exitX=1;exitY=0.5;exitDx=0;exitDy=0;entryX=0;entryY=0.5;entryDx=0;entryDy=0;strokeColor=default;align=center;verticalAlign=middle;fontFamily=Helvetica;fontSize=11;fontColor=default;labelBackgroundColor=default;endArrow=classic;" edge="1" parent="vy_A0kVUEXBCtg2rwdy0-118" source="vy_A0kVUEXBCtg2rwdy0-146" target="vy_A0kVUEXBCtg2rwdy0-131">
          <mxGeometry relative="1" as="geometry" />
        </mxCell>
        <mxCell id="vy_A0kVUEXBCtg2rwdy0-143" style="edgeStyle=none;shape=connector;rounded=0;orthogonalLoop=1;jettySize=auto;html=1;exitX=1;exitY=0.5;exitDx=0;exitDy=0;entryX=0;entryY=0.5;entryDx=0;entryDy=0;strokeColor=default;align=center;verticalAlign=middle;fontFamily=Helvetica;fontSize=11;fontColor=default;labelBackgroundColor=default;endArrow=classic;" edge="1" parent="vy_A0kVUEXBCtg2rwdy0-118" source="vy_A0kVUEXBCtg2rwdy0-146" target="vy_A0kVUEXBCtg2rwdy0-134">
          <mxGeometry relative="1" as="geometry" />
        </mxCell>
        <mxCell id="vy_A0kVUEXBCtg2rwdy0-144" style="edgeStyle=none;shape=connector;rounded=0;orthogonalLoop=1;jettySize=auto;html=1;exitX=1;exitY=0.5;exitDx=0;exitDy=0;entryX=0;entryY=0.5;entryDx=0;entryDy=0;strokeColor=default;align=center;verticalAlign=middle;fontFamily=Helvetica;fontSize=11;fontColor=default;labelBackgroundColor=default;endArrow=classic;" edge="1" parent="vy_A0kVUEXBCtg2rwdy0-118" source="vy_A0kVUEXBCtg2rwdy0-146" target="vy_A0kVUEXBCtg2rwdy0-137">
          <mxGeometry relative="1" as="geometry" />
        </mxCell>
        <mxCell id="vy_A0kVUEXBCtg2rwdy0-145" style="edgeStyle=none;shape=connector;rounded=0;orthogonalLoop=1;jettySize=auto;html=1;exitX=1;exitY=0.5;exitDx=0;exitDy=0;entryX=0;entryY=0.5;entryDx=0;entryDy=0;strokeColor=default;align=center;verticalAlign=middle;fontFamily=Helvetica;fontSize=11;fontColor=default;labelBackgroundColor=default;endArrow=classic;" edge="1" parent="vy_A0kVUEXBCtg2rwdy0-118" source="vy_A0kVUEXBCtg2rwdy0-146" target="vy_A0kVUEXBCtg2rwdy0-139">
          <mxGeometry relative="1" as="geometry" />
        </mxCell>
        <mxCell id="vy_A0kVUEXBCtg2rwdy0-146" value="" style="ellipse;whiteSpace=wrap;html=1;fillColor=#e1d5e7;strokeColor=#9673a6;" vertex="1" parent="vy_A0kVUEXBCtg2rwdy0-118">
          <mxGeometry y="72.41379310344828" width="18.461538461538463" height="17.24137931034483" as="geometry" />
        </mxCell>
        <mxCell id="vy_A0kVUEXBCtg2rwdy0-147" style="edgeStyle=none;shape=connector;rounded=0;orthogonalLoop=1;jettySize=auto;html=1;exitX=1;exitY=0.5;exitDx=0;exitDy=0;entryX=0.05;entryY=0.38;entryDx=0;entryDy=0;entryPerimeter=0;strokeColor=default;align=center;verticalAlign=middle;fontFamily=Helvetica;fontSize=11;fontColor=default;labelBackgroundColor=default;endArrow=classic;" edge="1" parent="vy_A0kVUEXBCtg2rwdy0-118" source="vy_A0kVUEXBCtg2rwdy0-139" target="vy_A0kVUEXBCtg2rwdy0-140">
          <mxGeometry relative="1" as="geometry" />
        </mxCell>
        <mxCell id="vy_A0kVUEXBCtg2rwdy0-148" value="" style="group" vertex="1" connectable="0" parent="1">
          <mxGeometry x="650" y="310" width="80" height="100" as="geometry" />
        </mxCell>
        <mxCell id="vy_A0kVUEXBCtg2rwdy0-149" style="rounded=0;orthogonalLoop=1;jettySize=auto;html=1;exitX=1;exitY=0.5;exitDx=0;exitDy=0;" edge="1" parent="vy_A0kVUEXBCtg2rwdy0-148" source="vy_A0kVUEXBCtg2rwdy0-153" target="vy_A0kVUEXBCtg2rwdy0-161">
          <mxGeometry relative="1" as="geometry" />
        </mxCell>
        <mxCell id="vy_A0kVUEXBCtg2rwdy0-150" style="rounded=0;orthogonalLoop=1;jettySize=auto;html=1;exitX=1;exitY=0.5;exitDx=0;exitDy=0;entryX=0;entryY=0.5;entryDx=0;entryDy=0;" edge="1" parent="vy_A0kVUEXBCtg2rwdy0-148" source="vy_A0kVUEXBCtg2rwdy0-153" target="vy_A0kVUEXBCtg2rwdy0-164">
          <mxGeometry relative="1" as="geometry" />
        </mxCell>
        <mxCell id="vy_A0kVUEXBCtg2rwdy0-151" style="rounded=0;orthogonalLoop=1;jettySize=auto;html=1;exitX=1;exitY=0.5;exitDx=0;exitDy=0;entryX=0;entryY=0.5;entryDx=0;entryDy=0;" edge="1" parent="vy_A0kVUEXBCtg2rwdy0-148" source="vy_A0kVUEXBCtg2rwdy0-153" target="vy_A0kVUEXBCtg2rwdy0-167">
          <mxGeometry relative="1" as="geometry" />
        </mxCell>
        <mxCell id="vy_A0kVUEXBCtg2rwdy0-152" style="rounded=0;orthogonalLoop=1;jettySize=auto;html=1;exitX=1;exitY=0.5;exitDx=0;exitDy=0;entryX=0;entryY=0.5;entryDx=0;entryDy=0;" edge="1" parent="vy_A0kVUEXBCtg2rwdy0-148" source="vy_A0kVUEXBCtg2rwdy0-153" target="vy_A0kVUEXBCtg2rwdy0-169">
          <mxGeometry relative="1" as="geometry" />
        </mxCell>
        <mxCell id="vy_A0kVUEXBCtg2rwdy0-153" value="" style="ellipse;whiteSpace=wrap;html=1;fillColor=#d5e8d4;strokeColor=#82b366;" vertex="1" parent="vy_A0kVUEXBCtg2rwdy0-148">
          <mxGeometry y="13.793103448275861" width="18.461538461538463" height="17.24137931034483" as="geometry" />
        </mxCell>
        <mxCell id="vy_A0kVUEXBCtg2rwdy0-154" style="edgeStyle=none;shape=connector;rounded=0;orthogonalLoop=1;jettySize=auto;html=1;exitX=1;exitY=0.5;exitDx=0;exitDy=0;entryX=0;entryY=0.5;entryDx=0;entryDy=0;strokeColor=default;align=center;verticalAlign=middle;fontFamily=Helvetica;fontSize=11;fontColor=default;labelBackgroundColor=default;endArrow=classic;" edge="1" parent="vy_A0kVUEXBCtg2rwdy0-148" source="vy_A0kVUEXBCtg2rwdy0-158" target="vy_A0kVUEXBCtg2rwdy0-161">
          <mxGeometry relative="1" as="geometry" />
        </mxCell>
        <mxCell id="vy_A0kVUEXBCtg2rwdy0-155" style="edgeStyle=none;shape=connector;rounded=0;orthogonalLoop=1;jettySize=auto;html=1;exitX=1;exitY=0.5;exitDx=0;exitDy=0;entryX=0;entryY=0.5;entryDx=0;entryDy=0;strokeColor=default;align=center;verticalAlign=middle;fontFamily=Helvetica;fontSize=11;fontColor=default;labelBackgroundColor=default;endArrow=classic;" edge="1" parent="vy_A0kVUEXBCtg2rwdy0-148" source="vy_A0kVUEXBCtg2rwdy0-158" target="vy_A0kVUEXBCtg2rwdy0-164">
          <mxGeometry relative="1" as="geometry" />
        </mxCell>
        <mxCell id="vy_A0kVUEXBCtg2rwdy0-156" style="edgeStyle=none;shape=connector;rounded=0;orthogonalLoop=1;jettySize=auto;html=1;exitX=1;exitY=0.5;exitDx=0;exitDy=0;entryX=0;entryY=0.5;entryDx=0;entryDy=0;strokeColor=default;align=center;verticalAlign=middle;fontFamily=Helvetica;fontSize=11;fontColor=default;labelBackgroundColor=default;endArrow=classic;" edge="1" parent="vy_A0kVUEXBCtg2rwdy0-148" source="vy_A0kVUEXBCtg2rwdy0-158" target="vy_A0kVUEXBCtg2rwdy0-167">
          <mxGeometry relative="1" as="geometry" />
        </mxCell>
        <mxCell id="vy_A0kVUEXBCtg2rwdy0-157" style="edgeStyle=none;shape=connector;rounded=0;orthogonalLoop=1;jettySize=auto;html=1;exitX=1;exitY=0.5;exitDx=0;exitDy=0;entryX=0;entryY=0.5;entryDx=0;entryDy=0;strokeColor=default;align=center;verticalAlign=middle;fontFamily=Helvetica;fontSize=11;fontColor=default;labelBackgroundColor=default;endArrow=classic;" edge="1" parent="vy_A0kVUEXBCtg2rwdy0-148" source="vy_A0kVUEXBCtg2rwdy0-158" target="vy_A0kVUEXBCtg2rwdy0-169">
          <mxGeometry relative="1" as="geometry" />
        </mxCell>
        <mxCell id="vy_A0kVUEXBCtg2rwdy0-158" value="" style="ellipse;whiteSpace=wrap;html=1;fillColor=#d5e8d4;strokeColor=#82b366;" vertex="1" parent="vy_A0kVUEXBCtg2rwdy0-148">
          <mxGeometry y="44.827586206896555" width="18.461538461538463" height="17.24137931034483" as="geometry" />
        </mxCell>
        <mxCell id="vy_A0kVUEXBCtg2rwdy0-159" style="edgeStyle=none;shape=connector;rounded=0;orthogonalLoop=1;jettySize=auto;html=1;exitX=1;exitY=0.5;exitDx=0;exitDy=0;entryX=0;entryY=0.5;entryDx=0;entryDy=0;strokeColor=default;align=center;verticalAlign=middle;fontFamily=Helvetica;fontSize=11;fontColor=default;labelBackgroundColor=default;endArrow=classic;" edge="1" parent="vy_A0kVUEXBCtg2rwdy0-148" source="vy_A0kVUEXBCtg2rwdy0-161" target="vy_A0kVUEXBCtg2rwdy0-170">
          <mxGeometry relative="1" as="geometry" />
        </mxCell>
        <mxCell id="vy_A0kVUEXBCtg2rwdy0-160" style="edgeStyle=none;shape=connector;rounded=0;orthogonalLoop=1;jettySize=auto;html=1;exitX=1;exitY=0.5;exitDx=0;exitDy=0;entryX=0;entryY=0.5;entryDx=0;entryDy=0;strokeColor=default;align=center;verticalAlign=middle;fontFamily=Helvetica;fontSize=11;fontColor=default;labelBackgroundColor=default;endArrow=classic;" edge="1" parent="vy_A0kVUEXBCtg2rwdy0-148" source="vy_A0kVUEXBCtg2rwdy0-161" target="vy_A0kVUEXBCtg2rwdy0-171">
          <mxGeometry relative="1" as="geometry" />
        </mxCell>
        <mxCell id="vy_A0kVUEXBCtg2rwdy0-161" value="" style="ellipse;whiteSpace=wrap;html=1;fillColor=#d5e8d4;strokeColor=#82b366;" vertex="1" parent="vy_A0kVUEXBCtg2rwdy0-148">
          <mxGeometry x="30.769230769230774" width="18.461538461538463" height="17.24137931034483" as="geometry" />
        </mxCell>
        <mxCell id="vy_A0kVUEXBCtg2rwdy0-162" style="edgeStyle=none;shape=connector;rounded=0;orthogonalLoop=1;jettySize=auto;html=1;entryX=0;entryY=0.5;entryDx=0;entryDy=0;strokeColor=default;align=center;verticalAlign=middle;fontFamily=Helvetica;fontSize=11;fontColor=default;labelBackgroundColor=default;endArrow=classic;" edge="1" parent="vy_A0kVUEXBCtg2rwdy0-148" source="vy_A0kVUEXBCtg2rwdy0-164" target="vy_A0kVUEXBCtg2rwdy0-170">
          <mxGeometry relative="1" as="geometry" />
        </mxCell>
        <mxCell id="vy_A0kVUEXBCtg2rwdy0-163" style="edgeStyle=none;shape=connector;rounded=0;orthogonalLoop=1;jettySize=auto;html=1;exitX=1;exitY=0.5;exitDx=0;exitDy=0;entryX=0;entryY=0.5;entryDx=0;entryDy=0;strokeColor=default;align=center;verticalAlign=middle;fontFamily=Helvetica;fontSize=11;fontColor=default;labelBackgroundColor=default;endArrow=classic;" edge="1" parent="vy_A0kVUEXBCtg2rwdy0-148" source="vy_A0kVUEXBCtg2rwdy0-164" target="vy_A0kVUEXBCtg2rwdy0-171">
          <mxGeometry relative="1" as="geometry" />
        </mxCell>
        <mxCell id="vy_A0kVUEXBCtg2rwdy0-164" value="" style="ellipse;whiteSpace=wrap;html=1;fillColor=#d5e8d4;strokeColor=#82b366;" vertex="1" parent="vy_A0kVUEXBCtg2rwdy0-148">
          <mxGeometry x="30.769230769230774" y="27.586206896551722" width="18.461538461538463" height="17.24137931034483" as="geometry" />
        </mxCell>
        <mxCell id="vy_A0kVUEXBCtg2rwdy0-165" style="edgeStyle=none;shape=connector;rounded=0;orthogonalLoop=1;jettySize=auto;html=1;exitX=1;exitY=0.5;exitDx=0;exitDy=0;entryX=0;entryY=0.5;entryDx=0;entryDy=0;strokeColor=default;align=center;verticalAlign=middle;fontFamily=Helvetica;fontSize=11;fontColor=default;labelBackgroundColor=default;endArrow=classic;" edge="1" parent="vy_A0kVUEXBCtg2rwdy0-148" source="vy_A0kVUEXBCtg2rwdy0-167" target="vy_A0kVUEXBCtg2rwdy0-170">
          <mxGeometry relative="1" as="geometry" />
        </mxCell>
        <mxCell id="vy_A0kVUEXBCtg2rwdy0-166" style="edgeStyle=none;shape=connector;rounded=0;orthogonalLoop=1;jettySize=auto;html=1;exitX=1;exitY=0.5;exitDx=0;exitDy=0;entryX=0;entryY=0.5;entryDx=0;entryDy=0;strokeColor=default;align=center;verticalAlign=middle;fontFamily=Helvetica;fontSize=11;fontColor=default;labelBackgroundColor=default;endArrow=classic;" edge="1" parent="vy_A0kVUEXBCtg2rwdy0-148" source="vy_A0kVUEXBCtg2rwdy0-167" target="vy_A0kVUEXBCtg2rwdy0-171">
          <mxGeometry relative="1" as="geometry" />
        </mxCell>
        <mxCell id="vy_A0kVUEXBCtg2rwdy0-167" value="" style="ellipse;whiteSpace=wrap;html=1;fillColor=#d5e8d4;strokeColor=#82b366;" vertex="1" parent="vy_A0kVUEXBCtg2rwdy0-148">
          <mxGeometry x="30.769230769230774" y="55.172413793103445" width="18.461538461538463" height="17.24137931034483" as="geometry" />
        </mxCell>
        <mxCell id="vy_A0kVUEXBCtg2rwdy0-168" style="edgeStyle=none;shape=connector;rounded=0;orthogonalLoop=1;jettySize=auto;html=1;exitX=1;exitY=0.5;exitDx=0;exitDy=0;entryX=0;entryY=0.5;entryDx=0;entryDy=0;strokeColor=default;align=center;verticalAlign=middle;fontFamily=Helvetica;fontSize=11;fontColor=default;labelBackgroundColor=default;endArrow=classic;" edge="1" parent="vy_A0kVUEXBCtg2rwdy0-148" source="vy_A0kVUEXBCtg2rwdy0-169" target="vy_A0kVUEXBCtg2rwdy0-171">
          <mxGeometry relative="1" as="geometry" />
        </mxCell>
        <mxCell id="vy_A0kVUEXBCtg2rwdy0-169" value="" style="ellipse;whiteSpace=wrap;html=1;fillColor=#d5e8d4;strokeColor=#82b366;" vertex="1" parent="vy_A0kVUEXBCtg2rwdy0-148">
          <mxGeometry x="30.769230769230774" y="82.75862068965517" width="18.461538461538463" height="17.24137931034483" as="geometry" />
        </mxCell>
        <mxCell id="vy_A0kVUEXBCtg2rwdy0-170" value="" style="ellipse;whiteSpace=wrap;html=1;fillColor=#d5e8d4;strokeColor=#82b366;" vertex="1" parent="vy_A0kVUEXBCtg2rwdy0-148">
          <mxGeometry x="61.53846153846155" y="27.586206896551722" width="18.461538461538463" height="17.24137931034483" as="geometry" />
        </mxCell>
        <mxCell id="vy_A0kVUEXBCtg2rwdy0-171" value="" style="ellipse;whiteSpace=wrap;html=1;fillColor=#d5e8d4;strokeColor=#82b366;" vertex="1" parent="vy_A0kVUEXBCtg2rwdy0-148">
          <mxGeometry x="61.53846153846155" y="55.172413793103445" width="18.461538461538463" height="17.24137931034483" as="geometry" />
        </mxCell>
        <mxCell id="vy_A0kVUEXBCtg2rwdy0-172" style="edgeStyle=none;shape=connector;rounded=0;orthogonalLoop=1;jettySize=auto;html=1;exitX=1;exitY=0.5;exitDx=0;exitDy=0;entryX=0;entryY=0.5;entryDx=0;entryDy=0;strokeColor=default;align=center;verticalAlign=middle;fontFamily=Helvetica;fontSize=11;fontColor=default;labelBackgroundColor=default;endArrow=classic;" edge="1" parent="vy_A0kVUEXBCtg2rwdy0-148" source="vy_A0kVUEXBCtg2rwdy0-176" target="vy_A0kVUEXBCtg2rwdy0-161">
          <mxGeometry relative="1" as="geometry" />
        </mxCell>
        <mxCell id="vy_A0kVUEXBCtg2rwdy0-173" style="edgeStyle=none;shape=connector;rounded=0;orthogonalLoop=1;jettySize=auto;html=1;exitX=1;exitY=0.5;exitDx=0;exitDy=0;entryX=0;entryY=0.5;entryDx=0;entryDy=0;strokeColor=default;align=center;verticalAlign=middle;fontFamily=Helvetica;fontSize=11;fontColor=default;labelBackgroundColor=default;endArrow=classic;" edge="1" parent="vy_A0kVUEXBCtg2rwdy0-148" source="vy_A0kVUEXBCtg2rwdy0-176" target="vy_A0kVUEXBCtg2rwdy0-164">
          <mxGeometry relative="1" as="geometry" />
        </mxCell>
        <mxCell id="vy_A0kVUEXBCtg2rwdy0-174" style="edgeStyle=none;shape=connector;rounded=0;orthogonalLoop=1;jettySize=auto;html=1;exitX=1;exitY=0.5;exitDx=0;exitDy=0;entryX=0;entryY=0.5;entryDx=0;entryDy=0;strokeColor=default;align=center;verticalAlign=middle;fontFamily=Helvetica;fontSize=11;fontColor=default;labelBackgroundColor=default;endArrow=classic;" edge="1" parent="vy_A0kVUEXBCtg2rwdy0-148" source="vy_A0kVUEXBCtg2rwdy0-176" target="vy_A0kVUEXBCtg2rwdy0-167">
          <mxGeometry relative="1" as="geometry" />
        </mxCell>
        <mxCell id="vy_A0kVUEXBCtg2rwdy0-175" style="edgeStyle=none;shape=connector;rounded=0;orthogonalLoop=1;jettySize=auto;html=1;exitX=1;exitY=0.5;exitDx=0;exitDy=0;entryX=0;entryY=0.5;entryDx=0;entryDy=0;strokeColor=default;align=center;verticalAlign=middle;fontFamily=Helvetica;fontSize=11;fontColor=default;labelBackgroundColor=default;endArrow=classic;" edge="1" parent="vy_A0kVUEXBCtg2rwdy0-148" source="vy_A0kVUEXBCtg2rwdy0-176" target="vy_A0kVUEXBCtg2rwdy0-169">
          <mxGeometry relative="1" as="geometry" />
        </mxCell>
        <mxCell id="vy_A0kVUEXBCtg2rwdy0-176" value="" style="ellipse;whiteSpace=wrap;html=1;fillColor=#d5e8d4;strokeColor=#82b366;" vertex="1" parent="vy_A0kVUEXBCtg2rwdy0-148">
          <mxGeometry y="72.41379310344828" width="18.461538461538463" height="17.24137931034483" as="geometry" />
        </mxCell>
        <mxCell id="vy_A0kVUEXBCtg2rwdy0-177" style="edgeStyle=none;shape=connector;rounded=0;orthogonalLoop=1;jettySize=auto;html=1;exitX=1;exitY=0.5;exitDx=0;exitDy=0;entryX=0.05;entryY=0.38;entryDx=0;entryDy=0;entryPerimeter=0;strokeColor=default;align=center;verticalAlign=middle;fontFamily=Helvetica;fontSize=11;fontColor=default;labelBackgroundColor=default;endArrow=classic;" edge="1" parent="vy_A0kVUEXBCtg2rwdy0-148" source="vy_A0kVUEXBCtg2rwdy0-169" target="vy_A0kVUEXBCtg2rwdy0-170">
          <mxGeometry relative="1" as="geometry" />
        </mxCell>
        <mxCell id="vy_A0kVUEXBCtg2rwdy0-179" value="&lt;font style=&quot;font-size: 16px;&quot;&gt;1更新的模型&lt;/font&gt;" style="text;html=1;align=center;verticalAlign=middle;resizable=0;points=[];autosize=1;strokeColor=none;fillColor=none;fontFamily=Helvetica;fontSize=11;fontColor=default;labelBackgroundColor=default;" vertex="1" parent="1">
          <mxGeometry x="20" y="345" width="110" height="30" as="geometry" />
        </mxCell>
        <mxCell id="vy_A0kVUEXBCtg2rwdy0-180" value="&lt;font style=&quot;font-size: 16px;&quot;&gt;2更新的模型&lt;/font&gt;" style="text;html=1;align=center;verticalAlign=middle;resizable=0;points=[];autosize=1;strokeColor=none;fillColor=none;fontFamily=Helvetica;fontSize=11;fontColor=default;labelBackgroundColor=default;" vertex="1" parent="1">
          <mxGeometry x="480" y="383.5" width="110" height="30" as="geometry" />
        </mxCell>
        <mxCell id="vy_A0kVUEXBCtg2rwdy0-181" value="&lt;font style=&quot;font-size: 16px;&quot;&gt;n更新的模型&lt;/font&gt;" style="text;html=1;align=center;verticalAlign=middle;resizable=0;points=[];autosize=1;strokeColor=none;fillColor=none;fontFamily=Helvetica;fontSize=11;fontColor=default;labelBackgroundColor=default;" vertex="1" parent="1">
          <mxGeometry x="739" y="345" width="110" height="30" as="geometry" />
        </mxCell>
      </root>
    </mxGraphModel>
  </diagram>
</mxfile>
